<svg xmlns="http://www.w3.org/2000/svg" enable-background="new 0 0 50 50" viewBox="0 0 50 50" width="256" height="256"><path d="M47.58833,7.1643l-19.48-6.04c-0.1899-0.0599-0.39-0.0599-0.57,0l-19.48,6.04c-0.34,0.12-0.5701,0.44-0.5701,0.79v7.2
		c0,4.4101,1.0701,8.64,3,12.39l11.3401-11.34c0.7801-0.7801,2.0356-0.7943,2.8301,0c0.2062,0.2062,0.3508,0.4505,0.4458,0.7098
		c-0.3853-0.2429-0.8911-0.2144-1.2272,0.1216c-4.2655,4.2654-9.6963,9.6962-12.3487,12.3487l0,0l-1.4263,1.4263h-3.2694
		c-0.1326,0-0.2597,0.0527-0.3535,0.1464l-4.4801,4.4801c-0.315,0.315-0.0919,0.8535,0.3535,0.8535h2.2694l-1.0748,1.0749
		c-0.3901,0.39-0.3901,1.02,0,1.4101c0.3625,0.3815,0.9917,0.4177,1.41,0l1.1003-1.1003l-0.0138,2.2887
		c-0.0027,0.4469,0.5375,0.6726,0.8536,0.3566l4.4138-4.4138c0.0937-0.0938,0.1465-0.221,0.1465-0.3536v-3.278l1.2009-1.201
		c1.0798,1.48,2.2999,2.86,3.6599,4.1l10.8401-10.84c0.7798-0.7801,2.0358-0.7943,2.8298,0
		c0.3512,0.3512,0.6065,0.8783,0.5249,1.4329c-0.0426-0.1471-0.1128-0.2838-0.2261-0.397c-0.39-0.39-1.02-0.39-1.41,0l-12.01,12.01
		l-1.8829,1.8829h-3.2235c-0.1326,0-0.2598,0.0527-0.3536,0.1465l-4.4801,4.4801c-0.315,0.3149-0.0919,0.8535,0.3536,0.8535h2.2236
		l-0.957,0.957c-0.3901,0.39-0.3901,1.02,0,1.41c0.3648,0.384,0.9938,0.4157,1.41,0l1.0286-1.0286l-0.0141,2.335
		c-0.0027,0.4469,0.5375,0.6725,0.8535,0.3566l4.4138-4.4139c0.0938-0.0938,0.1465-0.2209,0.1465-0.3535v-3.3239l13.5011-13.5012
		c-0.0616,0.0754-0.1185,0.1539-0.1882,0.2236l-10.24,10.24c0,0.01,0.01,0.01,0.02,0.02c3.246,2.1788,5.5637,2.7993,8.34,4.0301
		l3.64-1.5101c10.11-4.21,16.6901-14.07,16.6901-25.03v-7.2C48.14843,7.6043,47.92833,7.28431,47.58833,7.1643z" fill="#000000" class="color000 svgShape"></path><path d="M47.58833,7.1643l-19.48-6.04c-0.1899-0.0599-0.39-0.0599-0.57,0l-19.48,6.04c-0.34,0.12-0.5701,0.44-0.5701,0.79v7.2
			c0,4.4101,1.0701,8.64,3,12.39l11.3401-11.34c0.7801-0.7801,2.0356-0.7943,2.8301,0c0.2062,0.2062,0.3508,0.4505,0.4458,0.7098
			c-0.3853-0.2429-0.8911-0.2144-1.2272,0.1216c-4.2655,4.2654-9.6963,9.6962-12.3487,12.3487l0,0l-1.4263,1.4263h-3.2694
			c-0.1326,0-0.2597,0.0527-0.3535,0.1464l-4.4801,4.4801c-0.315,0.315-0.0919,0.8535,0.3535,0.8535h2.2694l-1.0748,1.0749
			c-0.3901,0.39-0.3901,1.02,0,1.4101c0.3625,0.3815,0.9917,0.4177,1.41,0l1.1003-1.1003l-0.0138,2.2887
			c-0.0027,0.4469,0.5375,0.6726,0.8536,0.3566l4.4138-4.4138c0.0937-0.0938,0.1465-0.221,0.1465-0.3536v-3.278l1.2009-1.201
			c1.0798,1.48,2.2999,2.86,3.6599,4.1l10.8401-10.84c0.7798-0.7801,2.0358-0.7943,2.8298,0
			c0.3512,0.3512,0.6065,0.8783,0.5249,1.4329c-0.0426-0.1471-0.1128-0.2838-0.2261-0.397c-0.39-0.39-1.02-0.39-1.41,0l-12.01,12.01
			l-1.8829,1.8829h-3.2235c-0.1326,0-0.2598,0.0527-0.3536,0.1465l-4.4801,4.4801c-0.315,0.3149-0.0919,0.8535,0.3536,0.8535h2.2236
			l-0.957,0.957c-0.3901,0.39-0.3901,1.02,0,1.41c0.3648,0.384,0.9938,0.4157,1.41,0l1.0286-1.0286l-0.0141,2.335
			c-0.0027,0.4469,0.5375,0.6725,0.8535,0.3566l4.4138-4.4139c0.0938-0.0938,0.1465-0.2209,0.1465-0.3535v-3.3239l13.5011-13.5012
			c-0.0616,0.0754-0.1185,0.1539-0.1882,0.2236l-10.24,10.24c0,0.01,0.01,0.01,0.02,0.02c3.246,2.1788,5.5637,2.7993,8.34,4.0301
			l3.64-1.5101c10.11-4.21,16.6901-14.07,16.6901-25.03v-7.2C48.14843,7.6043,47.92833,7.28431,47.58833,7.1643z" fill="#000000" class="color000 svgShape"></path></svg>
