<svg xmlns="http://www.w3.org/2000/svg" viewBox="0 0 64 64" id="stopwatch"><path d="M33.62 64C19.27 64 7.59 52.32 7.59 37.97s11.68-26.03 26.03-26.03 26.03 11.68 26.03 26.03S47.98 64 33.62 64zm0-47.43c-11.8 0-21.4 9.6-21.4 21.4 0 11.8 9.6 21.4 21.4 21.4s21.4-9.6 21.4-21.4c0-11.8-9.6-21.4-21.4-21.4z"></path><path d="M33.62 44.92c-3.84 0-6.96-3.12-6.96-6.96S29.78 31 33.62 31s6.96 3.12 6.96 6.96-3.12 6.96-6.96 6.96zm0-9.27c-1.28 0-2.32 1.04-2.32 2.32 0 1.28 1.04 2.32 2.32 2.32 1.28 0 2.32-1.04 2.32-2.32 0-1.28-1.04-2.32-2.32-2.32zm0-19.08c-1.28 0-2.32-1.04-2.32-2.32V2.32C31.3 1.04 32.34 0 33.62 0c1.28 0 2.32 1.04 2.32 2.32v11.93c0 1.28-1.04 2.32-2.32 2.32z"></path><path d="M33.62 21.2c-1.28 0-2.32-1.04-2.32-2.32v-4.63c0-1.28 1.04-2.32 2.32-2.32 1.28 0 2.32 1.04 2.32 2.32v4.63c0 1.28-1.04 2.32-2.32 2.32zm-13.5 5.59c-.59 0-1.19-.23-1.64-.68l-3.27-3.27c-.91-.91-.91-2.37 0-3.28.91-.91 2.37-.91 3.28 0l3.27 3.27c.91.91.91 2.37 0 3.28-.45.45-1.04.68-1.64.68zm-5.59 13.49H9.91c-1.28 0-2.32-1.04-2.32-2.32 0-1.28 1.04-2.32 2.32-2.32h4.63c1.28 0 2.32 1.04 2.32 2.32a2.33 2.33 0 0 1-2.33 2.32zm2.32 16.77c-.59 0-1.19-.23-1.64-.68-.91-.91-.91-2.37 0-3.28l3.27-3.27c.91-.91 2.37-.91 3.28 0 .91.91.91 2.37 0 3.28l-3.27 3.27c-.45.46-1.04.68-1.64.68zM33.62 64c-1.28 0-2.32-1.04-2.32-2.32v-4.63c0-1.28 1.04-2.32 2.32-2.32 1.28 0 2.32 1.04 2.32 2.32v4.63c0 1.28-1.04 2.32-2.32 2.32zm16.77-6.95c-.59 0-1.19-.23-1.64-.68l-3.27-3.27c-.91-.91-.91-2.37 0-3.28.91-.91 2.37-.91 3.28 0l3.27 3.27c.91.91.91 2.37 0 3.28-.45.46-1.05.68-1.64.68zm6.95-16.77h-4.63c-1.28 0-2.32-1.04-2.32-2.32 0-1.28 1.04-2.32 2.32-2.32h4.63c1.28 0 2.32 1.04 2.32 2.32a2.322 2.322 0 0 1-2.32 2.32zM47.12 26.79c-.59 0-1.19-.23-1.64-.68-.91-.91-.91-2.37 0-3.28l3.27-3.27c.91-.91 2.37-.91 3.28 0 .91.91.91 2.37 0 3.28l-3.27 3.27c-.45.45-1.05.68-1.64.68zM38.88 4.64H28.36c-1.28 0-2.32-1.04-2.32-2.32S27.08 0 28.36 0h10.52c1.28 0 2.32 1.04 2.32 2.32s-1.04 2.32-2.32 2.32z"></path><path d="M16.85 23.52c-.59 0-1.19-.23-1.64-.68l-6.47-6.47c-.91-.91-.91-2.37 0-3.28.91-.91 2.37-.91 3.28 0l6.47 6.47c.91.91.91 2.37 0 3.28-.45.45-1.04.68-1.64.68z"></path><path d="M6.66 20.76c-.59 0-1.19-.23-1.64-.68-.91-.91-.91-2.37 0-3.28l7.43-7.44c.91-.91 2.37-.91 3.28 0 .91.91.91 2.37 0 3.28L8.3 20.08c-.45.46-1.04.68-1.64.68zm26.96 30.86c-1.28 0-2.32-1.04-2.32-2.32v-6.7c0-1.28 1.04-2.32 2.32-2.32 1.28 0 2.32 1.04 2.32 2.32v6.7c0 1.28-1.04 2.32-2.32 2.32z"></path></svg>