<svg xmlns="http://www.w3.org/2000/svg" enable-background="new 0 0 68 68" viewBox="0 0 68 68" id="toast"><path d="M39.07,4.19c-11.88,0-24.42,2.61-27.31,7.5c5.14-1.29,11.26-1.91,17.19-1.91c14.42,0,29.93,3.66,29.93,11.69
		c0,2.1-1.07,4.01-3.19,5.68v29.07h3.33c2.64,0,4.79-2.15,4.79-4.8v-32.1c0-0.48,0.24-0.94,0.65-1.24c1.68-1.29,2.54-2.7,2.54-4.21
		C67,7.58,52.61,4.19,39.07,4.19z"></path><path d="M28.95,11.78C15.4,11.78,1,15.18,1,21.47c0,1.5,0.86,2.91,2.56,4.2c0.4,0.3,0.63,0.75,0.63,1.24v32.11
		c0,2.64,2.15,4.79,4.8,4.79h39.9c2.65,0,4.8-2.15,4.8-4.79V26.91c0-0.49,0.23-0.94,0.64-1.24c1.69-1.29,2.55-2.7,2.55-4.2
		C56.88,15.18,42.49,11.78,28.95,11.78z M12.2786,33.5815c-0.6216,0-1.1254-0.5038-1.1254-1.1254
		c0-0.6215,0.5038-1.1254,1.1254-1.1254s1.1254,0.5038,1.1254,1.1254C13.4041,33.0776,12.9002,33.5815,12.2786,33.5815z
		 M13.4041,24.256c-0.6216,0-1.1254-0.5038-1.1254-1.1254c0-0.6215,0.5038-1.1254,1.1254-1.1254s1.1254,0.5038,1.1254,1.1254
		C14.5295,23.7521,14.0256,24.256,13.4041,24.256z M15.6549,53.2649c-0.6216,0-1.1254-0.5038-1.1254-1.1254
		c0-0.6215,0.5038-1.1254,1.1254-1.1254c0.6215,0,1.1254,0.5039,1.1254,1.1254C16.7803,52.761,16.2764,53.2649,15.6549,53.2649z
		 M16.8176,39.6352c-0.6215,0-1.1254-0.5039-1.1254-1.1254c0-0.6216,0.5039-1.1254,1.1254-1.1254
		c0.6216,0,1.1254,0.5038,1.1254,1.1254C17.943,39.1313,17.4391,39.6352,16.8176,39.6352z M19.6575,19.511
		c0-0.6216,0.5038-1.1254,1.1254-1.1254c0.6215,0,1.1254,0.5038,1.1254,1.1254s-0.5039,1.1254-1.1254,1.1254
		C20.1613,20.6364,19.6575,20.1326,19.6575,19.511z M21.9083,48.4821c-0.6216,0-1.1254-0.5038-1.1254-1.1254
		c0-0.6215,0.5038-1.1254,1.1254-1.1254c0.6215,0,1.1254,0.5039,1.1254,1.1254C23.0337,47.9783,22.5298,48.4821,21.9083,48.4821z
		 M23.9494,30.2053c-0.6215,0-1.1254-0.5038-1.1254-1.1254s0.5039-1.1254,1.1254-1.1254c0.6216,0,1.1254,0.5038,1.1254,1.1254
		S24.571,30.2053,23.9494,30.2053z M26.7151,40.7606c-0.6216,0-1.1254-0.5038-1.1254-1.1254c0-0.6216,0.5038-1.1254,1.1254-1.1254
		c0.6215,0,1.1254,0.5038,1.1254,1.1254C27.8405,40.2567,27.3366,40.7606,26.7151,40.7606z M32.8779,32.4561
		c-0.6216,0-1.1254-0.5038-1.1254-1.1254c0-0.6216,0.5038-1.1254,1.1254-1.1254c0.6215,0,1.1254,0.5038,1.1254,1.1254
		C34.0034,31.9522,33.4994,32.4561,32.8779,32.4561z M35.4871,21.7618c-0.6215,0-1.1254-0.5039-1.1254-1.1254
		c0-0.6216,0.5039-1.1254,1.1254-1.1254c0.6216,0,1.1254,0.5038,1.1254,1.1254C36.6125,21.2579,36.1087,21.7618,35.4871,21.7618z
		 M40.1909,54.3903c-0.6216,0-1.1254-0.5038-1.1254-1.1254s0.5038-1.1254,1.1254-1.1254s1.1254,0.5038,1.1254,1.1254
		S40.8125,54.3903,40.1909,54.3903z M45.129,46.2313c-0.6215,0-1.1254-0.5038-1.1254-1.1254c0-0.6216,0.5038-1.1254,1.1254-1.1254
		c0.6216,0,1.1254,0.5038,1.1254,1.1254C46.2544,45.7274,45.7505,46.2313,45.129,46.2313z M48.2227,23.7422
		c-0.6216,0-1.1254-0.5038-1.1254-1.1254s0.5038-1.1254,1.1254-1.1254s1.1254,0.5038,1.1254,1.1254S48.8443,23.7422,48.2227,23.7422
		z"></path></svg>