<svg width="24" height="24" viewBox="0 0 24 24" fill="none" xmlns="http://www.w3.org/2000/svg">
<g clip-path="url(#clip0_1951_87763)">
<path fill-rule="evenodd" clip-rule="evenodd" d="M0.421506 3.23216C0.372189 3.22185 0.323064 3.21158 0.274163 3.20137C0.0577365 3.19983 -0.0594785 3.38332 0.0305396 3.57101C0.0521381 3.61634 0.080501 3.65877 0.108722 3.70098C0.116036 3.71193 0.123342 3.72285 0.130517 3.73381C0.413291 4.16872 0.696182 4.60353 0.979069 5.03834C1.84083 6.36289 2.70254 7.68737 3.56078 9.01424C3.65999 9.16785 3.77721 9.24408 3.95341 9.27779C5.37455 9.54822 6.79109 9.45706 8.19154 9.17091C9.42575 8.91886 10.6485 8.60706 11.8693 8.29448C11.9638 8.27032 12.0582 8.24609 12.1527 8.22187C13.749 7.81251 15.3436 7.40359 17.0007 7.30811C18.4777 7.22269 19.8989 7.42763 21.2434 8.07001C21.4656 8.17612 21.5112 8.16654 21.6368 7.97157C21.8923 7.57465 22.1474 7.17756 22.4026 6.78048C22.913 5.98613 23.4235 5.19178 23.9363 4.3988C24.0309 4.25209 24.0271 4.14598 23.8777 4.04486C23.7448 3.95492 23.6135 3.86225 23.4823 3.76957C23.2591 3.61199 23.0359 3.45439 22.8044 3.31015C21.5636 2.53753 20.2141 2.0928 18.7512 2.01504C17.5714 1.95222 16.4069 2.09089 15.2574 2.34332C14.502 2.50899 13.7483 2.68261 12.9947 2.85623C12.241 3.02985 11.4874 3.20347 10.732 3.36914C9.33535 3.67521 7.92149 3.85984 6.49193 3.92917C4.72565 4.01459 2.99501 3.76408 1.27356 3.40937C0.987301 3.35042 0.701322 3.29065 0.421506 3.23216ZM19.8219 10.2919C19.0194 10.0368 18.1974 9.9157 17.4501 9.93064C16.5292 9.9249 15.7117 10.0203 14.9081 10.198C14.0562 10.3862 13.2069 10.5858 12.3576 10.7854C11.8933 10.8945 11.4289 11.0036 10.9642 11.1108C9.29748 11.4954 7.61625 11.7812 5.90093 11.8222C5.60444 11.8295 5.5217 12.0099 5.69216 12.2738C7.06207 14.3932 8.43246 16.5124 9.80281 18.6316C10.556 19.7964 11.3093 20.9612 12.0624 22.126C12.0653 22.1305 12.0682 22.135 12.0711 22.1396C12.1222 22.2193 12.1804 22.3102 12.2803 22.2428C12.3309 22.2087 12.3562 22.0846 12.3409 22.0122C12.2274 21.4736 12.1074 20.936 11.9874 20.3986C11.9507 20.2339 11.9139 20.0693 11.8774 19.9047C11.7632 19.3902 11.6491 18.8757 11.535 18.3612C11.3514 17.5331 11.1677 16.7051 10.9837 15.8772C10.9519 15.7336 10.9714 15.642 11.1392 15.5914C12.4098 15.2099 13.6888 14.8682 15.0192 14.7709C15.6409 14.7254 16.2595 14.7426 16.8498 14.9632C17.0298 15.0307 17.1168 15.01 17.2198 14.8476C17.88 13.8073 18.5448 12.77 19.2095 11.7327C19.45 11.3574 19.6905 10.9821 19.9307 10.6067C20.0671 10.3934 20.0575 10.3669 19.8219 10.2919Z" fill="white"/>
</g>
<defs>
<clipPath id="clip0_1951_87763">
<rect width="24" height="24" fill="white"/>
</clipPath>
</defs>
</svg>
